<svg width="24" height="24" viewBox="0 0 24 24" fill="none" xmlns="http://www.w3.org/2000/svg">
<path d="M9.95305 16.9107C10.3947 16.7947 10.789 16.6164 11.1322 16.3732C11.4728 16.1323 11.7491 15.82 11.9521 15.4347C12.1531 15.0542 12.2538 14.6016 12.2538 14.076C12.2538 13.4276 12.0997 12.8745 11.7849 12.4123C11.4716 11.9532 10.9993 11.6304 10.3613 11.447C10.8298 11.2255 11.1803 10.9401 11.419 10.5922C11.6557 10.2438 11.7741 9.80796 11.7741 9.28624C11.7741 8.8039 11.6949 8.39591 11.5369 8.07014C11.3751 7.73944 11.1492 7.4769 10.8605 7.27951C10.5673 7.08218 10.2201 6.93823 9.81354 6.85194C9.40459 6.76336 8.95723 6.72046 8.4614 6.72046H3.57483V17.0852H8.59861C9.06293 17.0852 9.5165 17.0268 9.95305 16.9107ZM5.8571 8.48599H7.99216C8.19394 8.48599 8.39111 8.50038 8.57909 8.53713C8.77049 8.56997 8.9354 8.6309 9.08144 8.71911C9.22865 8.80385 9.34511 8.9249 9.4331 9.0796C9.5181 9.2343 9.56036 9.43362 9.56036 9.67476C9.56036 10.1091 9.4331 10.4258 9.17061 10.6174C8.90545 10.812 8.57064 10.9079 8.16634 10.9079H5.85716L5.8571 8.48599ZM5.8571 15.3199V12.4658H8.33805C8.82927 12.4658 9.2286 12.5787 9.528 12.8059C9.82702 13.0363 9.97728 13.4155 9.97728 13.9497C9.97728 14.2222 9.9331 14.4478 9.84088 14.6215C9.74903 14.7968 9.62257 14.9346 9.46996 15.0351C9.31734 15.1396 9.13632 15.2103 8.93225 15.2549C8.73122 15.2999 8.51752 15.3199 8.29231 15.3199L5.8571 15.3199Z" fill="white"/>
<path d="M13.9584 16.1883C14.2939 16.5369 14.6928 16.8044 15.1702 16.9952C15.6479 17.1837 16.1799 17.2794 16.771 17.2794C17.6193 17.2794 18.3472 17.0852 18.9441 16.6952C19.5479 16.307 19.9907 15.6621 20.2824 14.7587H18.4671C18.3968 14.991 18.215 15.2147 17.9164 15.424C17.615 15.6335 17.2557 15.7386 16.8398 15.7386C16.2617 15.7386 15.8155 15.587 15.5069 15.2854C15.1971 14.984 14.9965 14.4222 14.9965 13.829H20.412C20.4508 13.2467 20.4036 12.6906 20.2686 12.1582C20.1325 11.6249 19.915 11.1495 19.609 10.7338C19.3031 10.3173 18.9137 9.98467 18.4387 9.73924C17.9621 9.4904 17.4059 9.36816 16.771 9.36816C16.196 9.36816 15.6768 9.47039 15.2059 9.67355C14.7351 9.87742 14.3308 10.1566 13.9899 10.5105C13.6497 10.8623 13.3911 11.2819 13.2039 11.768C13.0205 12.2525 12.9268 12.7767 12.9268 13.3379C12.9268 13.9183 13.0171 14.4538 13.1962 14.9376C13.3772 15.424 13.6313 15.838 13.9584 16.1883ZM15.0907 12.0352C15.1433 11.8479 15.234 11.6726 15.367 11.5065C15.5007 11.3432 15.6756 11.2044 15.8889 11.093C16.1072 10.98 16.3797 10.9246 16.7091 10.9246C17.2153 10.9246 17.6304 11.0713 17.8752 11.3424C18.1212 11.6157 18.3011 12.0042 18.3503 12.5299H14.9965C15.0061 12.3835 15.0376 12.2178 15.0907 12.0352Z" fill="white"/>
<path d="M18.7762 7.41577H14.5748V8.43855H18.7762V7.41577Z" fill="white"/>
</svg>
